<svg width="720" height="546" viewBox="0 0 720 546" fill="none" xmlns="http://www.w3.org/2000/svg">
<g clip-path="url(#clip0_1_1640)">
<rect width="720" height="546" fill="#081158"/>
<g opacity="0.5">
<path opacity="0.5" d="M720 10.882C687.999 -9.87411 603.285 -15.1928 520.436 129.581C416.875 310.549 147.766 298.872 56.2986 363.088C-16.8749 414.458 -46.2551 506.433 -51.7986 546" stroke="#CFDDEE"/>
<path opacity="0.5" d="M720 218.145C694.842 205.429 628.246 202.171 563.115 290.87C481.702 401.744 270.144 394.591 198.238 433.933C140.714 465.407 117.617 521.758 113.26 546" stroke="#CFDDEE"/>
<path opacity="0.5" d="M720 380.188C701.433 373.758 652.283 372.11 604.214 416.969C544.127 473.042 387.991 469.426 334.922 489.322C292.467 505.24 275.42 533.739 272.203 546" stroke="#CFDDEE"/>
<path opacity="0.5" d="M720 123.935C691.548 107.564 616.228 103.369 542.566 217.556C450.488 360.292 211.221 351.083 129.897 401.731C64.8379 442.249 38.7157 514.793 33.7869 546" stroke="#CFDDEE"/>
<path opacity="0.5" d="M720 285.977C697.631 275.892 638.415 273.308 580.502 343.656C508.112 431.591 320.002 425.917 256.066 457.12C204.917 482.081 184.38 526.773 180.506 546" stroke="#CFDDEE"/>
<path opacity="0.5" d="M720 463.094C706.059 459.879 669.153 459.055 633.061 481.485C587.946 509.522 470.71 507.713 430.862 517.661C398.986 525.621 386.186 539.87 383.771 546" stroke="#CFDDEE"/>
</g>
</g>
<defs>
<clipPath id="clip0_1_1640">
<rect width="720" height="546" fill="white"/>
</clipPath>
</defs>
</svg>
