<svg width="1438" height="1347" viewBox="0 0 1438 1347" fill="none" xmlns="http://www.w3.org/2000/svg">
<path d="M1437 1319.12C1377.46 1370.25 1219.84 1383.35 1065.69 1026.76C873.008 581.015 372.306 609.774 202.124 451.608C65.9786 325.075 11.3141 98.5307 1.00004 1.0752" stroke="#5B95D2"/>
<path d="M1437 808.612C1390.19 839.931 1266.28 847.959 1145.1 629.483C993.624 356.391 600.004 374.01 466.216 277.106C359.188 199.582 316.214 60.7841 308.104 1.0752" stroke="#5B95D2"/>
<path d="M1437 409.486C1402.45 425.326 1311.01 429.385 1221.57 318.891C1109.77 180.775 819.268 189.686 720.528 140.677C641.536 101.469 609.82 31.2727 603.836 1.0752" stroke="#5B95D2"/>
<path d="M1437 1040.66C1384.06 1080.99 1243.92 1091.32 1106.87 810.063C935.55 458.491 490.372 481.174 339.062 356.424C218.012 256.624 169.41 77.9415 160.24 1.0752" stroke="#5B95D2"/>
<path d="M1437 641.533C1395.38 666.376 1285.2 672.742 1177.45 499.468C1042.76 282.877 692.768 296.851 573.81 219.996C478.642 158.512 440.432 48.4302 433.222 1.0752" stroke="#5B95D2"/>
<path d="M1437 205.28C1411.06 213.2 1342.4 215.23 1275.24 159.983C1191.3 90.925 973.174 95.3805 899.034 70.8761C839.724 51.2723 815.91 16.1739 811.416 1.0752" stroke="#5B95D2"/>
</svg>
